<svg width="90" height="86" viewBox="0 0 90 86" fill="none" xmlns="http://www.w3.org/2000/svg">
<path fill-rule="evenodd" clip-rule="evenodd" d="M35.8875 0.372092L53.2732 0.246277L53.4343 22.3158L68.7383 7.14704L81.0041 19.4161L65.5128 34.7704L86.9862 34.5455L87.1691 51.8561L64.7371 52.0911L80.6383 67.6373L68.4569 79.9894L44.0075 56.0857L43.9028 56.1895L37.0535 49.3384L37.0468 49.3448L36.6374 48.9222L34.7675 47.0519L33.1357 45.4564L33.154 45.4379L31.637 43.9205L31.7159 43.8422L8.6123 19.9946L21.1255 7.97573L36.0554 23.3865L35.8875 0.372092Z" fill="#EEEEEE"/>
<path d="M53.1087 35.0234H2.39258V52.1738H53.1087V35.0234Z" fill="white"/>
<path d="M41.572 36.2347L8.6123 67.4364L20.4804 79.8658L53.4401 48.6641L41.572 36.2347Z" fill="white"/>
<path d="M35.8838 35.0231V85.9978H53.1081V35.0231H35.8838Z" fill="white"/>
</svg>
