<svg width="90" height="86" viewBox="0 0 90 86" fill="none" xmlns="http://www.w3.org/2000/svg">
<g clip-path="url(#clip0_410_3997)">
<path fill-rule="evenodd" clip-rule="evenodd" d="M89.4869 12.5851C89.4869 5.63453 84.051 0 77.3453 0H57.1095C50.4039 0 44.968 5.63454 44.968 12.5851V27.2677C44.968 34.2182 39.532 39.8528 32.8265 39.8528H12.5907C5.88515 39.8528 0.449219 45.4872 0.449219 52.4378V73.4127C0.449219 80.3634 5.88514 85.9978 12.5907 85.9978H32.8265C39.5321 85.9978 44.968 80.3634 44.968 73.4127V58.7304C44.968 51.7798 50.404 46.1453 57.1095 46.1453H77.3453C84.051 46.1453 89.4869 40.5107 89.4869 33.5602V12.5851Z" fill="white"/>
<path fill-rule="evenodd" clip-rule="evenodd" d="M89.4869 73.4127C89.4869 80.3634 84.051 85.9978 77.3453 85.9978H57.1095C50.4039 85.9978 44.968 80.3634 44.968 73.4127V58.7304C44.968 51.7798 39.532 46.1453 32.8265 46.1453H12.5907C5.88515 46.1453 0.449219 40.5107 0.449219 33.5602V12.5851C0.449219 5.63453 5.88514 0 12.5907 0H32.8265C39.5321 0 44.968 5.63454 44.968 12.5851V27.2677C44.968 34.2182 50.404 39.8528 57.1095 39.8528H77.3453C84.051 39.8528 89.4869 45.4873 89.4869 52.4378V73.4127Z" fill="#EEEEEE"/>
</g>
<defs>
<clipPath id="clip0_410_3997">
<rect width="90" height="86" fill="white"/>
</clipPath>
</defs>
</svg>
