<svg width="90" height="86" viewBox="0 0 90 86" fill="none" xmlns="http://www.w3.org/2000/svg">
<mask id="mask0_410_4011" style="mask-type:luminance" maskUnits="userSpaceOnUse" x="0" y="0" width="90" height="86">
<path d="M89.9492 0H0V85.9978H89.9492V0Z" fill="white"/>
</mask>
<g mask="url(#mask0_410_4011)">
<path fill-rule="evenodd" clip-rule="evenodd" d="M45.1165 13.9327C43.2281 13.9327 41.5622 15.1737 41.0145 16.9884L34.2325 39.4619C34.1987 39.5737 34.1665 39.6859 34.1358 39.7983C33.7517 41.2066 32.5765 42.3512 31.1224 42.3512H29.9618C29.2033 42.3512 28.5811 41.7701 28.3885 41.0335L24.4153 25.842C24.0854 24.5808 22.9501 23.7015 21.6515 23.7015C20.3926 23.7015 19.2819 24.5289 18.9168 25.7387L14.3955 40.721C14.1222 41.6264 13.3529 42.3512 12.4107 42.3512H9.77517C9.47244 42.3512 9.21804 42.1297 9.14111 41.8356L6.61271 32.1682C6.4028 31.3657 5.68034 30.8062 4.85396 30.8062C4.05281 30.8062 3.34606 31.3327 3.11372 32.1025L0.236496 41.6367C-0.0788319 42.6816 -0.0788319 43.7969 0.236495 44.8418L3.11372 54.3759C3.34606 55.1459 4.05282 55.6723 4.85396 55.6723C5.68034 55.6723 6.4028 55.1128 6.61271 54.3103L8.29772 47.8677C8.69161 46.3615 10.0474 45.3115 11.5983 45.3115H13.8131C14.0836 45.3115 14.317 45.4976 14.3955 45.7575L18.9168 60.7398C19.2819 61.9496 20.3926 62.777 21.6515 62.777C22.9501 62.777 24.0854 61.8977 24.4153 60.6365L28.3885 45.445C28.4089 45.3667 28.4789 45.3115 28.5595 45.3115H32.096C33.1012 45.3115 33.941 46.0507 34.2325 47.0167L41.0145 69.4901C41.5622 71.3048 43.2281 72.5458 45.1165 72.5458C47.0644 72.5458 48.7673 71.227 49.2621 69.3351L55.222 46.5478C55.4063 45.8431 56.0156 45.3115 56.7412 45.3115H60.392C60.6625 45.3115 60.896 45.4976 60.9744 45.7575L65.4958 60.7398C65.8609 61.9496 66.9716 62.777 68.2305 62.777C69.5291 62.777 70.6644 61.8977 70.9942 60.6365L74.9671 45.445C74.9882 45.3667 75.0578 45.3115 75.1384 45.3115H77.7223C79.2515 45.3115 80.6001 46.3163 81.0436 47.7859L83.0323 54.3759C83.2645 55.1459 83.9715 55.6723 84.7728 55.6723C85.5994 55.6723 86.3216 55.1128 86.5314 54.3103L89.0601 44.6429C89.3003 43.7227 89.3003 42.7558 89.0601 41.8356L86.5314 32.1682C86.3216 31.3657 85.5994 30.8062 84.7728 30.8062C83.9715 30.8062 83.2645 31.3327 83.0323 32.1025L80.1552 41.6367C80.0332 42.0417 79.6805 42.3512 79.2595 42.3512H76.5407C75.7822 42.3512 75.1602 41.7701 74.9671 41.0335L70.9942 25.842C70.6644 24.5808 69.5291 23.7015 68.2305 23.7015C66.9716 23.7015 65.8609 24.5289 65.4958 25.7387L60.9744 40.721C60.7012 41.6264 59.9319 42.3512 58.9897 42.3512H58.0636C56.6864 42.3512 55.5718 41.2683 55.222 39.9307L49.2621 17.1434C48.7673 15.2515 47.0644 13.9327 45.1165 13.9327Z" fill="white"/>
</g>
</svg>
