<svg width="90" height="86" viewBox="0 0 90 86" fill="none" xmlns="http://www.w3.org/2000/svg">
<path fill-rule="evenodd" clip-rule="evenodd" d="M57.7503 7.88468C57.7503 5.91812 56.1627 4.32391 54.2042 4.32391H48.2941C46.3357 4.32391 44.748 5.91812 44.748 7.88468V13.8193C44.748 15.7858 46.3357 17.38 48.2941 17.38H54.2042C56.1627 17.38 57.7503 15.7858 57.7503 13.8193V7.88468ZM18.7435 20.9408C18.7435 18.9742 17.1559 17.38 15.1974 17.38H9.28725C7.32888 17.38 5.74121 18.9742 5.74121 20.9408V26.8754C5.74121 28.8419 7.32888 30.4361 9.28725 30.4361H18.7435L18.7434 39.9315C18.7434 41.898 17.1558 43.4922 15.1973 43.4922H9.28725C7.32888 43.4922 5.74121 45.0865 5.74121 47.053V52.9877C5.74121 54.9542 7.32888 56.5484 9.28725 56.5484H18.7435L18.7434 66.0438C18.7434 68.0103 20.331 69.6045 22.2895 69.6045H28.1996C30.158 69.6045 31.7457 68.0103 31.7457 66.0438V60.1091C31.7457 58.1426 30.158 56.5484 28.1996 56.5484L18.7435 56.5484V47.053C18.7435 45.0865 20.3311 43.4922 22.2896 43.4922H28.1996C30.158 43.4922 31.7457 41.898 31.7457 39.9315V33.9969C31.7457 32.0303 30.158 30.4361 28.1996 30.4361H18.7435V20.9408ZM31.7457 20.9408C31.7457 18.9742 33.3334 17.38 35.2918 17.38H41.2019C43.1603 17.38 44.748 18.9742 44.748 20.9408V26.8754C44.748 28.8419 43.1603 30.4361 41.2019 30.4361H35.2918C33.3334 30.4361 31.7457 28.8419 31.7457 26.8754V20.9408ZM57.7503 20.9408C57.7503 18.9742 59.3379 17.38 61.2964 17.38H67.2065C69.1649 17.38 70.7525 18.9742 70.7525 20.9408V30.4361H61.2964C59.3379 30.4361 57.7503 28.8419 57.7503 26.8754V20.9408ZM70.7525 30.4361H80.2088C82.1671 30.4361 83.7544 32.0303 83.7544 33.9969V39.9315C83.7544 41.898 82.1671 43.4922 80.2088 43.4922H74.2986C72.3402 43.4922 70.7525 45.0865 70.7525 47.053V52.9877C70.7525 54.9542 69.1649 56.5484 67.2065 56.5484H61.2964C59.3379 56.5484 57.7503 58.1426 57.7503 60.1091V65.4503C57.7503 67.4169 56.1627 69.0111 54.2042 69.0111H48.2941C46.3357 69.0111 44.748 67.4169 44.748 65.4503V59.5157C44.748 57.5492 46.3357 55.955 48.2941 55.955H54.2042C56.1627 55.955 57.7503 54.3608 57.7503 52.3942V47.053C57.7503 45.0865 59.3379 43.4922 61.2964 43.4922H67.2064C69.1648 43.4922 70.7525 41.898 70.7525 39.9316L70.7525 30.4361ZM31.7457 72.5718C31.7457 70.6053 33.3334 69.0111 35.2918 69.0111H41.2019C43.1603 69.0111 44.748 70.6053 44.748 72.5718V78.5064C44.748 80.4727 43.1603 82.0673 41.2019 82.0673H35.2918C33.3334 82.0673 31.7457 80.4727 31.7457 78.5064V72.5718Z" fill="white"/>
</svg>
