<svg width="90" height="86" viewBox="0 0 90 86" fill="none" xmlns="http://www.w3.org/2000/svg">
<path fill-rule="evenodd" clip-rule="evenodd" d="M24.1904 2.1864C13.2354 2.1864 4.35449 11.1041 4.35449 22.1045C4.35449 33.105 13.2354 42.0227 24.1905 42.0227H44.0264V22.1045C44.0264 11.104 35.1455 2.1864 24.1904 2.1864ZM24.3142 13.8474C19.7044 13.8474 15.9674 17.5999 15.9674 22.2288C15.9674 26.8577 19.7044 30.6101 24.3142 30.6101H32.6609V22.2288C32.6609 17.5999 28.924 13.8474 24.3142 13.8474Z" fill="#3906A6"/>
<path fill-rule="evenodd" clip-rule="evenodd" d="M65.0831 2.1864C76.038 2.1864 84.919 11.1041 84.919 22.1045C84.919 33.105 76.038 42.0227 65.083 42.0227H45.2471V22.1045C45.2471 11.104 54.128 2.1864 65.0831 2.1864ZM64.9593 13.8474C69.5691 13.8474 73.3061 17.5999 73.3061 22.2288C73.3061 26.8577 69.5691 30.6101 64.9593 30.6101H56.6125V22.2288C56.6125 17.5999 60.3495 13.8474 64.9593 13.8474Z" fill="#3906A6"/>
<path fill-rule="evenodd" clip-rule="evenodd" d="M24.1904 82.8362C13.2354 82.8362 4.35449 73.9185 4.35449 62.9181C4.35449 51.9177 13.2354 43 24.1905 43H44.0264V62.9182C44.0264 73.9185 35.1455 82.8362 24.1904 82.8362ZM24.3142 71.1753C19.7044 71.1753 15.9674 67.4228 15.9674 62.7939C15.9674 58.165 19.7044 54.4126 24.3142 54.4126H32.6609V62.7939C32.6609 67.4228 28.924 71.1753 24.3142 71.1753Z" fill="#3906A6"/>
<path fill-rule="evenodd" clip-rule="evenodd" d="M65.0831 82.8362C76.038 82.8362 84.919 73.9185 84.919 62.9181C84.919 51.9177 76.038 43 65.083 43H45.2471V62.9182C45.2471 73.9185 54.128 82.8362 65.0831 82.8362ZM64.9593 71.1753C69.5691 71.1753 73.3061 67.4228 73.3061 62.7939C73.3061 58.165 69.5691 54.4126 64.9593 54.4126H56.6125V62.7939C56.6125 67.4228 60.3495 71.1753 64.9593 71.1753Z" fill="#3906A6"/>
</svg>
