<svg width="90" height="86" viewBox="0 0 90 86" fill="none" xmlns="http://www.w3.org/2000/svg">
<g clip-path="url(#clip0_410_3986)">
<path fill-rule="evenodd" clip-rule="evenodd" d="M23.451 0H67.1756C79.7577 0 89.9576 10.238 89.9576 22.8671V62.7535C89.9576 75.3826 79.7577 85.6206 67.1756 85.6206H23.451C10.8688 85.6206 0.668945 75.3826 0.668945 62.7535V22.8671C0.668945 10.238 10.8688 0 23.451 0ZM81.5489 10.666C88.9104 18.5255 79.1342 39.7534 59.7132 58.0799C40.2922 76.4063 18.5807 84.8915 11.2193 77.032C3.85784 69.1725 13.634 47.9446 33.055 29.6181C52.476 11.2917 74.1875 2.80654 81.5489 10.666Z" fill="white"/>
<path d="M46.2339 29.0603L49.9515 39.1444L59.998 42.8758L49.9515 46.6073L46.2339 56.6914L42.5163 46.6073L32.4697 42.8758L42.5163 39.1444L46.2339 29.0603Z" fill="white"/>
<path d="M75.6603 19.056C77.233 19.056 78.508 17.7762 78.508 16.1976C78.508 14.6189 77.233 13.3392 75.6603 13.3392C74.0875 13.3392 72.8125 14.6189 72.8125 16.1976C72.8125 17.7762 74.0875 19.056 75.6603 19.056Z" fill="white"/>
</g>
<defs>
<clipPath id="clip0_410_3986">
<rect width="90" height="86" fill="white"/>
</clipPath>
</defs>
</svg>
