<svg width="90" height="87" viewBox="0 0 90 87" fill="none" xmlns="http://www.w3.org/2000/svg">
<path fill-rule="evenodd" clip-rule="evenodd" d="M22.1591 0.5C9.92097 0.5 0 10.0092 0 21.7395C0 33.4697 9.92097 42.979 22.1591 42.979H44.3182V21.7395C44.3182 10.0092 34.3972 0.5 22.1591 0.5ZM22.2973 12.9346C17.1476 12.9346 12.973 16.936 12.973 21.8719C12.973 26.8079 17.1476 30.8093 22.2973 30.8093H31.6216V21.8719C31.6216 16.936 27.447 12.9346 22.2973 12.9346Z" fill="#3906A6"/>
<path fill-rule="evenodd" clip-rule="evenodd" d="M67.8409 0.5C80.079 0.5 90 10.0092 90 21.7395C90 33.4697 80.079 42.979 67.8409 42.979H45.6818V21.7395C45.6818 10.0092 55.6028 0.5 67.8409 0.5ZM67.7027 12.9346C72.8524 12.9346 77.027 16.936 77.027 21.8719C77.027 26.8079 72.8524 30.8093 67.7027 30.8093H58.3784V21.8719C58.3784 16.936 62.553 12.9346 67.7027 12.9346Z" fill="#3906A6"/>
<path fill-rule="evenodd" clip-rule="evenodd" d="M22.1591 86.5C9.92097 86.5 0 76.9908 0 65.2605C0 53.5303 9.92097 44.021 22.1591 44.021H44.3182V65.2605C44.3182 76.9908 34.3972 86.5 22.1591 86.5ZM22.2973 74.0654C17.1476 74.0654 12.973 70.064 12.973 65.1281C12.973 60.1921 17.1476 56.1907 22.2973 56.1907H31.6216V65.1281C31.6216 70.064 27.447 74.0654 22.2973 74.0654Z" fill="#3906A6"/>
<path fill-rule="evenodd" clip-rule="evenodd" d="M67.8409 86.5C80.079 86.5 90 76.9908 90 65.2605C90 53.5303 80.079 44.021 67.8409 44.021H45.6818V65.2605C45.6818 76.9908 55.6028 86.5 67.8409 86.5ZM67.7027 74.0654C72.8524 74.0654 77.027 70.064 77.027 65.1281C77.027 60.1921 72.8524 56.1907 67.7027 56.1907H58.3784V65.1281C58.3784 70.064 62.553 74.0654 67.7027 74.0654Z" fill="#3906A6"/>
</svg>
