<svg width="90" height="83" viewBox="0 0 90 83" fill="none" xmlns="http://www.w3.org/2000/svg">
<path d="M63.9278 0.425742C64.6983 0.414618 65.469 0.429137 66.2394 0.448387C66.8668 1.26068 66.795 2.374 66.9232 3.46519C67.6496 9.57533 69.0102 14.6558 71.9994 19.5586C72.1692 19.8548 72.3391 20.151 72.5141 20.4562C75.617 25.5745 80.5255 28.4487 85.3194 29.8128C86.8638 29.9666 88.4082 30.1204 89.9994 30.2789C89.9994 38.1234 89.9994 45.9679 89.9994 54.0501C88.5738 54.0501 87.1482 54.0501 85.6794 54.0501C79.6624 55.2125 74.1133 58.8297 70.3119 65.0617C68.0308 69.2211 66.6234 73.2314 66.0003 78.2528C65.9531 78.6164 65.9058 78.98 65.8571 79.3546C65.7423 80.2413 65.6305 81.1287 65.5194 82.0162C63.7659 81.9603 62.0125 81.9023 60.2591 81.8427C59.665 81.8227 59.0709 81.8033 58.4767 81.7844C54.8141 81.6676 51.1717 81.4762 47.5194 81.084C47.0121 68.1341 52.0278 56.1669 58.3644 46.6507C59.5852 44.9153 60.8493 43.3757 62.2794 41.9314C62.517 41.9314 62.7546 41.9314 62.9994 41.9314C62.7455 41.6076 62.4917 41.2837 62.2302 40.9501C61.1555 39.5586 60.1297 38.1137 59.1069 36.6587C58.9261 36.4024 58.7454 36.1462 58.5591 35.8821C58.1188 35.2578 57.6791 34.6328 57.2394 34.0077C55.841 38.2547 54.5574 42.5498 53.3047 46.871C53.1035 47.5629 52.9023 48.2547 52.701 48.9466C52.2812 50.3898 51.8619 51.8334 51.443 53.2771C50.914 55.1002 50.3842 56.9229 49.854 58.7454C47.014 68.4841 47.014 68.4841 44.2463 78.2576C43.5978 80.5682 43.5978 80.5682 43.1994 81.084C42.239 81.1923 41.286 81.2724 40.3236 81.3334C40.0307 81.3535 39.7378 81.3735 39.4361 81.3941C38.8124 81.4363 38.1886 81.4773 37.5648 81.5174C36.6245 81.5781 35.6844 81.6425 34.7443 81.7076C31.5605 81.9221 28.3887 82.0866 25.1994 82.0162C25.1423 81.5427 25.0852 81.0693 25.0264 80.5815C23.9829 72.4132 21.6146 65.483 16.5594 60.1094C11.3632 55.5788 6.60316 54.0501 0.359375 54.0501C0.359375 46.2056 0.359375 38.3611 0.359375 30.2789C2.02258 30.1251 3.68578 29.9713 5.39938 29.8128C11.9463 27.6739 17.1885 23.4731 20.7683 15.9481C22.734 11.2471 23.5567 6.17202 24.1194 0.914489C25.9307 0.902824 27.7419 0.894441 29.5532 0.888885C30.1673 0.886565 30.7813 0.883403 31.3954 0.879327C34.9911 0.856084 38.5379 0.916732 42.1194 1.38059C42.3316 16.0475 37.2386 29.1935 29.5194 39.6009C28.9274 40.3907 28.3302 41.1661 27.7194 41.9314C27.9313 42.0539 28.1433 42.1764 28.3617 42.3026C29.1966 42.8898 29.7388 43.5069 30.4025 44.3821C30.6253 44.6735 30.848 44.9649 31.0775 45.2652C31.3058 45.5686 31.5341 45.872 31.7694 46.1846C32.0033 46.4916 32.2372 46.7987 32.4781 47.115C33.0535 47.871 33.6269 48.6294 34.1994 49.3891C35.4341 45.6313 36.5822 41.8468 37.6644 38.0114C37.8172 37.4731 37.97 36.9347 38.1274 36.38C38.5351 34.9429 38.9421 33.5055 39.3487 32.0679C39.7698 30.5797 40.192 29.092 40.6143 27.6044C40.6982 27.3086 40.7821 27.0129 40.8686 26.7082C41.0377 26.1123 41.2068 25.5165 41.3759 24.9206C41.6279 24.0326 41.8798 23.1445 42.1317 22.2564C43.5365 17.3037 44.9509 12.3557 46.3719 7.41078C46.4706 7.06717 46.5693 6.72357 46.671 6.36955C47.1934 4.551 47.7161 2.73263 48.2394 0.914489C50.2821 0.847438 52.3248 0.781083 54.3676 0.715349C55.0613 0.692929 55.7551 0.670325 56.4488 0.647527C57.4506 0.61464 58.4524 0.582432 59.4542 0.550347C59.9134 0.535054 59.9134 0.535054 60.3819 0.519452C61.5638 0.482098 62.7458 0.454574 63.9278 0.425742Z" fill="#3806A5"/>
<path d="M63.0009 41.4668C64.1025 42.1243 65.0943 42.9373 66.1029 43.8069C72.253 49.0917 78.4703 51.9356 85.6809 53.5854C85.6809 53.7393 85.6809 53.8931 85.6809 54.0515C85.3194 54.1483 84.9579 54.245 84.5854 54.3447C77.8017 56.2762 72.5594 60.3937 68.7609 68.0346C67.2718 71.3319 66.4659 74.5142 66.0018 78.2542C65.9546 78.6178 65.9073 78.9814 65.8587 79.356C65.7438 80.2428 65.632 81.1301 65.5209 82.0176C63.7674 81.9617 62.014 81.9038 60.2606 81.8441C59.6665 81.8242 59.0724 81.8047 58.4782 81.7858C54.8156 81.6691 51.1732 81.4777 47.5209 81.0854C47.0621 69.3735 51.2248 57.7933 56.8809 48.9244C57.1217 48.5417 57.3626 48.159 57.6107 47.7646C59.2193 45.3108 60.9857 43.3451 63.0009 41.4668Z" fill="#310590"/>
<path d="M27.8062 41.6436C29.2717 42.7589 30.4224 44.1872 31.6341 45.7202C31.8865 46.0182 32.139 46.3162 32.3991 46.6232C33.6237 48.1715 34.1793 48.8935 34.2694 51.1641C34.098 52.1015 34.098 52.1015 33.8391 53.1195C33.7429 53.5029 33.6468 53.8863 33.5478 54.2814C33.1878 55.6161 32.7976 56.9304 32.3991 58.2467C32.1046 59.2401 31.8102 60.2336 31.5159 61.2272C31.3644 61.7346 31.2129 62.2421 31.0568 62.765C30.3206 65.2433 29.606 67.7319 28.8891 70.2196C27.7942 74.0048 26.687 77.7829 25.5591 81.5517C26.8659 81.5517 28.1727 81.5517 29.5191 81.5517C29.5191 81.7056 29.5191 81.8594 29.5191 82.0178C28.0935 82.0178 26.6679 82.0178 25.1991 82.0178C25.142 81.5444 25.0849 81.0709 25.0261 80.5831C23.9826 72.4148 21.6142 65.4846 16.5591 60.1111C13.0134 57.0195 9.28892 54.8852 5.03906 54.0517C5.03906 53.7441 5.03906 53.4365 5.03906 53.1195C5.466 53.051 5.89294 52.9825 6.33281 52.912C13.4439 51.6771 21.01 48.474 26.3297 41.9422C26.9991 41.467 26.9991 41.467 27.8062 41.6436Z" fill="#310590"/>
</svg>
