<svg width="90" height="87" viewBox="0 0 90 87" fill="none" xmlns="http://www.w3.org/2000/svg">
<path d="M45.5005 0.5C43.596 0.5 41.9159 2.32089 41.3636 4.98358L34.5238 37.9576C34.4898 38.1217 34.4573 38.2863 34.4264 38.4513C34.039 40.5175 32.8537 42.197 31.3873 42.197H30.2168C29.4519 42.197 28.8244 41.3444 28.6301 40.2637L24.6231 17.9739C24.2904 16.1234 23.1454 14.8333 21.8358 14.8333C20.5661 14.8333 19.4461 16.0473 19.0779 17.8224L14.518 39.8051C14.2425 41.1336 13.4666 42.197 12.5164 42.197H9.85838C9.55308 42.197 9.29649 41.8719 9.21894 41.4405L6.66899 27.2561C6.4573 26.0785 5.72869 25.2576 4.89528 25.2576C4.08731 25.2576 3.37454 26.0301 3.14022 27.1597L0.238509 41.1487C-0.0795028 42.6818 -0.0795029 44.3182 0.238509 45.8513L3.14022 59.8403C3.37454 60.9699 4.08731 61.7424 4.89528 61.7424C5.72869 61.7424 6.4573 60.9214 6.66899 59.7439L8.36834 50.2911C8.76562 48.0811 10.133 46.5404 11.697 46.5404H13.9306C14.2034 46.5404 14.4389 46.8135 14.518 47.1949L19.0779 69.1776C19.4461 70.9528 20.5661 72.1667 21.8358 72.1667C23.1454 72.1667 24.2904 70.8766 24.6231 69.0261L28.6301 46.7363C28.6508 46.6215 28.7213 46.5404 28.8026 46.5404H32.3692C33.383 46.5404 34.2299 47.625 34.5238 49.0424L41.3636 82.0164C41.9159 84.6791 43.596 86.5 45.5005 86.5C47.465 86.5 49.1824 84.5648 49.6814 81.7891L55.692 48.3545C55.8779 47.3206 56.4924 46.5404 57.2241 46.5404H60.906C61.1788 46.5404 61.4143 46.8135 61.4935 47.1949L66.0533 69.1776C66.4215 70.9528 67.5416 72.1667 68.8112 72.1667C70.1209 72.1667 71.2658 70.8766 71.5985 69.0261L75.6056 46.7363C75.6262 46.6215 75.6967 46.5404 75.778 46.5404H78.3837C79.9259 46.5404 81.2863 48.0149 81.7336 50.171L83.7393 59.8403C83.9736 60.9699 84.6863 61.7424 85.4943 61.7424C86.3277 61.7424 87.0563 60.9214 87.268 59.7439L89.818 45.5595C90.0607 44.2094 90.0607 42.7906 89.818 41.4405L87.268 27.2561C87.0563 26.0785 86.3277 25.2576 85.4943 25.2576C84.6863 25.2576 83.9736 26.0301 83.7393 27.1597L80.8375 41.1487C80.7143 41.7429 80.359 42.197 79.934 42.197H77.1922C76.4274 42.197 75.7998 41.3444 75.6056 40.2637L71.5985 17.9739C71.2658 16.1234 70.1209 14.8333 68.8112 14.8333C67.5416 14.8333 66.4215 16.0473 66.0533 17.8224L61.4935 39.8051C61.2179 41.1336 60.442 42.197 59.4918 42.197H58.5578C57.1688 42.197 56.0448 40.6081 55.692 38.6455L49.6814 5.21088C49.1824 2.43515 47.465 0.5 45.5005 0.5Z" fill="#3906A6"/>
</svg>
