<svg xmlns="http://www.w3.org/2000/svg" width="90" height="87" fill="none" viewBox="0 0 90 87">
  <path fill="#3906A6" d="M21.24 35.506C14.565 10.808 28.5 4.2 39.26 3.758c1.031-.043 1.4-1.4.43-1.752C24.242-3.614 3.281 6.804.43 28.089-1.646 43.577 4.236 55.48 9.02 61.548c1.61 2.041 4.267 5.002 3.337 7.43-.56 1.46-1.137 2.11-2.031 3.393l-6.936 9.96a.957.957 0 0 0 .786 1.504h1.44a.957.957 0 0 0 .569-.187l10.452-7.736a4.734 4.734 0 0 1 2.816-.929c1.152 0 2.256.43 3.16 1.146 7.948 6.302 18.672 9.346 23.265 10.1 37.555 3.11 42.867-21.295 44.014-30.626.994-8.09-5.024-21.532-8.612-27.514-4.918-8.526-1.995-16.374.95-20.504.491-.69.019-1.746-.828-1.746h-.633a.978.978 0 0 0-.396.085c-9.855 4.389-19.419 2.848-23.243 1.444a.983.983 0 0 0-.513-.047l-1.522.268c-.84.149-1.1 1.278-.49 1.874 5.84 5.7 2.52 13.51-.115 16.951L41.614 42.566a.957.957 0 0 0 .748 1.553h.99c.24 0 .478-.096.655-.258 25.894-23.579 40.13-11.403 36.555 5.761-3.588 17.226-49.754 21.294-59.323-14.116Z"/>
</svg>
