<svg width="90" height="87" viewBox="0 0 90 87" fill="none" xmlns="http://www.w3.org/2000/svg">
<path d="M60.0001 4.43893C60.0001 2.26352 58.1685 0.5 55.9092 0.5H49.091C46.8317 0.5 45.0001 2.26352 45.0001 4.43893V11.0038C45.0001 13.1792 46.8317 14.9427 49.091 14.9427H55.9092C58.1685 14.9427 60.0001 13.1792 60.0001 11.0038V4.43893Z" fill="#3906A6"/>
<path d="M15 18.8817C15 16.7063 13.1684 14.9428 10.9091 14.9428H4.09091C1.83156 14.9428 0 16.7063 0 18.8817V25.4466C0 27.622 1.83157 29.3855 4.09091 29.3855H15L15 39.8893C15 42.0647 13.1684 43.8282 10.9091 43.8282L4.09091 43.8282C1.83156 43.8282 0 45.5918 0 47.7672V54.3321C0 56.5075 1.83157 58.271 4.09091 58.271H15L15 68.7748C15 70.9502 16.8315 72.7137 19.0909 72.7137H25.9091C28.1684 72.7137 30 70.9502 30 68.7748V62.2099C30 60.0345 28.1684 58.271 25.9091 58.271L15 58.271V47.7672C15 45.5918 16.8316 43.8282 19.0909 43.8282L25.9091 43.8282C28.1684 43.8282 30 42.0647 30 39.8893V33.3244C30 31.149 28.1684 29.3855 25.9091 29.3855L15 29.3855V18.8817Z" fill="#3906A6"/>
<path d="M30 18.8817C30 16.7063 31.8316 14.9428 34.0909 14.9428H40.9091C43.1685 14.9428 45 16.7063 45 18.8817V25.4466C45 27.622 43.1685 29.3855 40.9091 29.3855H34.0909C31.8316 29.3855 30 27.622 30 25.4466V18.8817Z" fill="#3906A6"/>
<path d="M60.0001 18.8817C60.0001 16.7063 61.8316 14.9428 64.091 14.9428H70.9092C73.1685 14.9428 75.0001 16.7063 75.0001 18.8817V29.3855H64.091C61.8316 29.3855 60.0001 27.622 60.0001 25.4466V18.8817Z" fill="#3906A6"/>
<path d="M75.0001 29.3855L85.9091 29.3855C88.1684 29.3855 90 31.149 90 33.3244V39.8893C90 42.0647 88.1684 43.8282 85.9091 43.8282L79.091 43.8282C76.8316 43.8282 75.0001 45.5918 75.0001 47.7672V54.3321C75.0001 56.5075 73.1685 58.271 70.9092 58.271H64.091C61.8316 58.271 60.0001 60.0345 60.0001 62.2099L60.0001 68.1183C60.0001 70.2937 58.1685 72.0572 55.9092 72.0572H49.091C46.8317 72.0572 45.0001 70.2937 45.0001 68.1183V61.5534C45.0001 59.378 46.8317 57.6145 49.091 57.6145H55.9092C58.1685 57.6145 60.0001 55.851 60.0001 53.6756L60.0001 47.7672C60.0001 45.5918 61.8316 43.8282 64.091 43.8282L70.9091 43.8282C73.1684 43.8282 75 42.0647 75 39.8893L75.0001 29.3855Z" fill="#3906A6"/>
<path d="M30 75.9962C30 73.8208 31.8316 72.0573 34.0909 72.0573H40.9091C43.1685 72.0573 45 73.8208 45 75.9962V82.5611C45 84.7365 43.1685 86.5 40.9091 86.5H34.0909C31.8316 86.5 30 84.7365 30 82.5611V75.9962Z" fill="#3906A6"/>
</svg>
