<svg width="90" height="86" viewBox="0 0 90 86" fill="none" xmlns="http://www.w3.org/2000/svg">
<g clip-path="url(#clip0_410_4101)">
<path d="M21.6182 35.2779C15.0496 10.8933 28.7641 4.36948 39.3558 3.93305C40.3704 3.89125 40.7332 2.55156 39.7789 2.20339C24.5739 -3.34457 3.94285 6.94035 1.13577 27.9553C-0.90679 43.2467 4.8822 54.9983 9.5913 60.9886C11.1757 63.004 13.7901 65.9275 12.8747 68.3245C12.3239 69.7667 11.7557 70.4068 10.8759 71.6746L4.04985 81.5087C3.61503 82.135 4.06179 82.9929 4.82263 82.9929H6.2401C6.44179 82.9929 6.63815 82.9284 6.80027 82.808L17.0871 75.1705C17.8892 74.5749 18.8607 74.2531 19.8586 74.2531C20.9925 74.2531 22.0799 74.6781 22.9684 75.3847C30.7912 81.6068 41.3462 84.6118 45.8674 85.3557C82.8296 88.4259 88.0582 64.3323 89.1867 55.1199C90.1646 47.1318 84.2424 33.8606 80.711 27.9553C75.8703 19.5372 78.7474 11.7894 81.6453 7.71177C82.1289 7.03093 81.6646 5.98736 80.831 5.98736H80.2082C80.0739 5.98736 79.9403 6.01676 79.8182 6.07144C70.1185 10.4046 60.7055 8.88402 56.9412 7.49742C56.7788 7.43757 56.607 7.42059 56.4367 7.45076L54.9387 7.716C54.1118 7.86241 53.8557 8.97762 54.4567 9.566C60.2047 15.1935 56.9364 22.9044 54.3429 26.3018L41.6714 42.2478C41.1796 42.8666 41.6188 43.7817 42.4077 43.7817H43.382C43.6177 43.7817 43.8519 43.6863 44.0262 43.527C69.5122 20.2473 83.5232 32.2686 80.0046 49.2146C76.4732 66.222 31.0353 70.2376 21.6182 35.2779Z" fill="#3906A6"/>
</g>
<defs>
<clipPath id="clip0_410_4101">
<rect width="90" height="86" fill="white"/>
</clipPath>
</defs>
</svg>
