<svg width="65" height="36" viewBox="0 0 65 36" fill="none" xmlns="http://www.w3.org/2000/svg">
<g id="Group 635146">
<path id="Vector" d="M64.5073 22.1701C65.1409 19.5256 65.1637 16.7729 64.574 14.1184C63.9844 11.4639 62.7976 8.97673 61.1027 6.84344C59.4079 4.71015 57.2489 2.98618 54.788 1.80095C52.3271 0.615714 49.6281 -1.0517e-06 46.8936 0H20.752H18.1009C13.2998 0.00144846 8.69573 1.89849 5.3013 5.27393C1.90688 8.64938 7.74633e-07 13.2269 0 17.9997C-7.74632e-07 22.7726 1.90688 27.3501 5.3013 30.7255C8.69572 34.101 13.2997 35.998 18.1009 35.9995L20.752 35.9995H34.0133C34.0557 35.9995 34.0969 35.9859 34.1309 35.9609C34.1649 35.9358 34.1899 35.9005 34.2023 35.8603C34.2146 35.82 34.2136 35.7768 34.1993 35.7372C34.1851 35.6975 34.1585 35.6635 34.1233 35.64C33.8281 35.4433 33.5409 35.2346 33.2627 35.0148C32.9046 34.732 32.5613 34.4307 32.2338 34.1134C31.9074 33.7972 31.5967 33.4651 31.3018 33.1197C31.1553 32.9481 31.0126 32.7733 30.8738 32.5954C30.7355 32.4183 30.6009 32.2383 30.47 32.0558C30.3398 31.8741 30.2131 31.6899 30.0898 31.5035C29.9673 31.3182 29.8482 31.1308 29.7322 30.9414C29.617 30.7536 29.5049 30.5638 29.3956 30.3726C29.2869 30.1824 29.1809 29.9906 29.0772 29.7976C28.9747 29.6069 28.8746 29.4149 28.7763 29.222C28.6798 29.0324 28.585 28.842 28.4916 28.651C28.3998 28.463 28.3092 28.2745 28.2195 28.0856C28.1926 28.029 28.1657 27.9723 28.1389 27.9157C28.0326 27.6907 27.8641 27.5005 27.653 27.3672C27.442 27.234 27.1971 27.1633 26.9471 27.1633L20.752 27.1632H18.1009C15.6577 27.1609 13.3154 26.1945 11.5886 24.4762C9.86183 22.758 8.89188 20.4285 8.89187 17.9997C8.89187 15.5709 9.86183 13.2415 11.5886 11.5232C13.3154 9.805 15.6577 8.83855 18.1009 8.83624H20.752H46.8936C50.8928 8.83624 54.7815 10.1406 57.9632 12.5492C61.1449 14.9578 63.4439 18.3376 64.5073 22.1701Z" fill="white"/>
<path id="Vector_2" d="M48.6476 26.9955C46.6104 27.3881 44.5169 27.3942 42.4774 27.0135C41.391 26.8219 40.4004 26.3243 39.6337 25.5693C38.8669 24.8144 38.324 23.802 37.8608 22.7785L33.1282 12.6891C32.8633 12.1245 32.4419 11.6468 31.9134 11.3121C31.3849 10.9774 30.7712 10.7995 30.1446 10.7995H22.7444C22.7112 10.7995 22.6785 10.8079 22.6494 10.8238C22.6203 10.8396 22.5957 10.8626 22.5778 10.8904C22.56 10.9182 22.5495 10.9501 22.5473 10.9831C22.5451 11.016 22.5513 11.049 22.5654 11.0789L29.805 26.5128C30.4944 27.9977 31.219 29.4801 32.1447 30.7826C33.0705 32.085 34.1975 33.2076 35.5108 34.0393C36.8241 34.871 38.3237 35.412 39.9024 35.6956C41.4811 35.9793 43.1387 36.0056 44.7839 35.9992H46.8934C50.9661 35.9992 54.9198 34.6342 58.1158 32.1249C61.3119 29.6155 63.5636 26.1083 64.5072 22.1698C63.4437 18.3373 61.1448 14.9575 57.9631 12.5489C54.7814 10.1403 50.8926 8.83594 46.8934 8.83594C49.1856 8.83593 51.3955 9.68492 53.0921 11.2172C54.7886 12.7496 55.8499 14.8553 56.069 17.1235C56.2881 19.3918 55.6493 21.6598 54.2771 23.4851C52.9049 25.3103 50.8979 26.5619 48.6476 26.9955Z" fill="url(#paint0_linear_423_3183)"/>
</g>
<defs>
<linearGradient id="paint0_linear_423_3183" x1="31.8679" y1="30.9991" x2="57.9948" y2="12.3352" gradientUnits="userSpaceOnUse">
<stop stop-color="white"/>
<stop offset="1" stop-color="#ADADAD"/>
</linearGradient>
</defs>
</svg>
